<?xml version="1.0" standalone="no"?>
<!DOCTYPE svg PUBLIC "-//W3C//DTD SVG 20010904//EN"
 "http://www.w3.org/TR/2001/REC-SVG-20010904/DTD/svg10.dtd">
<svg version="1.0" xmlns="http://www.w3.org/2000/svg"
 width="260.000000pt" height="260.000000pt" viewBox="0 0 260.000000 260.000000"
 preserveAspectRatio="xMidYMid meet">
<metadata>
Created by potrace 1.14, written by Peter Selinger 2001-2017
</metadata>
<g transform="translate(0.000000,260.000000) scale(0.100000,-0.100000)"
fill="#000000" stroke="none">
<path d="M0 1300 l0 -1300 1300 0 1300 0 0 1300 0 1300 -1300 0 -1300 0 0
-1300z m1432 729 c140 -29 277 -125 359 -252 88 -136 99 -209 99 -665 0 -328
-8 -458 -29 -471 -5 -3 -10 -15 -12 -26 -3 -11 -13 -21 -24 -24 -11 -2 -23 -7
-26 -12 -15 -24 -137 -30 -517 -27 -274 2 -405 7 -422 15 -14 7 -20 13 -15 14
6 1 -3 4 -20 8 -25 5 -31 12 -36 41 -4 19 -7 28 -8 20 -2 -9 -7 -6 -14 10 -8
17 -13 147 -15 417 -4 464 2 518 69 652 115 227 366 350 611 300z"/>
<path d="M1029 1545 c0 0 -1 -30 -2 -68 l-2 -67 68 0 68 0 -3 66 -3 66 -63 1
c-34 1 -62 2 -63 2z"/>
<path d="M1480 1478 l0 -68 65 0 65 0 0 68 0 67 -65 0 -65 0 0 -67z"/>
</g>
</svg>
